<?xml version="1.0" encoding="UTF-8"?>
<!-- Created with Inkscape (http://www.inkscape.org/) -->
<svg width="212.57mm" height="57.107mm" version="1.1" viewBox="0 0 212.57 57.107" xmlns="http://www.w3.org/2000/svg" xmlns:cc="http://creativecommons.org/ns#" xmlns:dc="http://purl.org/dc/elements/1.1/" xmlns:rdf="http://www.w3.org/1999/02/22-rdf-syntax-ns#">
 <metadata>
  <rdf:RDF>
   <cc:Work rdf:about="">
    <dc:format>image/svg+xml</dc:format>
    <dc:type rdf:resource="http://purl.org/dc/dcmitype/StillImage"/>
    <dc:title/>
   </cc:Work>
  </rdf:RDF>
 </metadata>
 <g transform="translate(20.084 -153.73)">
  <g transform="translate(-37.368 -64.606)">
   <circle cx="45.837" cy="246.89" r="28.553" fill="#0d2727" opacity=".96"/>
   <circle cx="45.837" cy="239.01" r="20.675" fill="#6fcfcf" opacity=".96"/>
   <circle cx="45.837" cy="232.01" r="13.68" fill="#c3ebeb" opacity=".96"/>
  </g>
  <g transform="matrix(.51311 0 0 .51311 -116.43 102.84)" style="font-feature-settings:normal;font-variant-caps:normal;font-variant-ligatures:normal;font-variant-numeric:normal" aria-label="迷霧通">
   <path d="m327.74 196.55q1.5938 2.5312 2.1562 0.65625 0.1875-0.75 3.0938-3.8438 3.4688-3.4688 5.1562-5.4375 2.625-2.9062 3.4688-2.9062t3.2812 3q3.2812 3.9375 6.9375 5.5312 3.6562 1.6875 10.5 2.25 6.9375 0.5625 22.781 0.65625 19.031 0.1875 20.062-0.28125 0.28125-0.0937 0.46875-0.75 0.28125-1.0312 1.4062-2.3438 1.125-1.2188 1.9688-1.4062 0.5625-0.1875 0.84375-0.46875 0.28125-0.375 0-0.65625-0.28125-0.1875-10.594-0.0937-19.594 0.5625-30.75 0.0937-11.062-0.5625-15.469-1.875t-8.0625-4.5938q-1.5-1.3125-1.6875-2.4375t-0.28125-8.5312q0-0.375 0-0.9375 0-6.75 0.28125-7.9688 0.375-1.3125 2.25-1.9688 0.0937-0.0937 0.1875-0.0937 2.4375-0.75 0.0937-3.4688-0.84375-0.9375-2.4375-2.3438-2.625-2.3438-3.375-2.3438-0.75-0.0937-2.0625 2.0625-1.5938 2.5312-3.9375 3.0938-2.3438 0.46875-8.7188-0.46875-0.84375-0.0937-0.84375 0.28125 0 0.375 0.84375 2.1562 0.75 1.6875 0.9375 1.875 0.28125 0.1875 1.3125-0.0937 8.625-2.4375 9.5625 0.84375 0.28125 0.9375 0.1875 9.9375 0 9-0.28125 9.4688-0.84375 1.7812-9.6562 6.6562-2.25 1.125-2.25 1.7812 0 0.5625 2.625 4.9688zm47.25-10.125q1.875 1.2188 4.125-0.375 2.3438-1.5938 2.25-3.9375-0.46875-8.5312-0.65625-18.656-0.0937-10.125 0.28125-11.25 0.5625-1.4062 1.5938 0.0937 0.5625 0.84375 1.7812 3.1875 4.7812 9.6562 12.562 18.188 6.0938 6.6562 7.0312 4.5 0.46875-1.0312 1.6875-2.25 1.3125-1.2188 2.25-1.5 1.7812-0.5625 0.0937-1.7812-0.46875-0.375-1.2188-0.75-12.281-7.2188-19.406-17.531-3.375-4.7812-3.375-5.8125 0-1.4062 4.5938-1.5938 1.6875-0.0937 8.0625-0.0937 10.969 0 11.531-0.28125 2.5312-1.2188-3.75-6.0938-2.0625-1.6875-2.8125-1.6875-0.65625 0-1.875 1.5938-2.1562 2.8125-2.9062 3.1875-1.5938 0.5625-7.7812 0.5625-5.8125 0-6.4688-0.1875-1.6875-0.5625-1.875-3.8438-0.0937-0.65625-0.0937-10.594 0.0937-10.031 0.28125-11.719 0.1875-1.6875 1.5-2.5312 1.4062-0.9375-0.1875-1.9688-0.65625-0.46875-3.9375-1.5938t-3.9375-1.125q-0.28125 0-0.375 0.1875 0 0.375 0.46875 5.7188 0.46875 5.4375 0.375 15.937-0.0937 10.406-0.65625 10.969-0.46875 0.5625-9.1875 0.75-8.625 0.0937-13.5-0.375-2.5312-0.1875-2.8125 0-0.1875 0.1875 0.75 2.0625t1.2188 2.1562q0.375 0.1875 1.6875-0.0937 6.0938-1.125 10.969-1.0312 4.9688 0.0937 5.3438 1.3125 0.65625 2.7188-5.625 12.656-6.2812 9.8438-12.375 15.469-1.5938 1.5938-1.875 2.0625-0.28125 0.375 0.1875 0.84375 0.375 0.28125 0.65625 0.0937 0.375-0.1875 2.7188-1.7812 10.969-7.5 18.75-19.312 2.625-4.0312 3.2812-3.0938 0.1875 0.1875 0.28125 0.5625 0.375 0.9375 0.1875 9.2812-0.0937 8.25-0.5625 16.125-0.1875 3.1875-0.0937 4.125 0.1875 0.84375 0.84375 1.2188zm-36.562-39.562q1.9688 0.65625 3.0938-0.46875t0.75-3.1875q-0.28125-2.0625-1.9688-3.9375-1.875-2.0625-6.1875-3.9375-4.2188-1.9688-7.0312-1.9688-1.5 0-0.46875 1.125 0.5625 0.5625 2.0625 1.6875 6.1875 5.0625 8.625 9.4688 0.5625 0.9375 1.125 1.2188zm24.75-7.6875q0.28125 0.0937 0.75 0.0937 0.0937-0.0937 0.46875-0.0937 0.46875 0 1.125-0.75t0.84375-1.4062q1.0312-3.2812-0.9375-7.7812-1.9688-4.5937-6.0938-8.4375-6.4688-6-6-3.375 0.1875 0.84375 1.3125 2.7188 4.7812 8.5312 6.0938 15.469 0.375 1.9688 0.75 2.625 0.46875 0.5625 1.6875 0.9375zm23.812 0q0.75 0.65625 4.2188-3.375 3.5625-4.0312 8.3438-11.062 1.9688-2.9062 2.7188-3.75t1.5938-1.2188q2.7188-1.0312-1.2188-2.4375-1.9688-0.65625-4.0312-1.6875-2.5312-1.2188-2.8125-0.84375-0.1875 0.1875-0.46875 1.4062-2.1562 9.9375-7.4062 19.875-1.3125 2.7188-0.9375 3.0938zm-45.375-11.25q2.9062 1.3125 3.75-1.4062 1.0312-3.0938-1.6875-6.375-0.1875-0.1875-0.375-0.375-2.25-2.3438-7.2188-4.5-4.9688-2.25-5.9062-1.3125l-0.0937 0.0937q-0.375 0.375 1.7812 2.25 0.28125 0.1875 0.375 0.28125 5.0625 4.3125 7.875 9.5625 0.75 1.5 1.5 1.7812z"/>
   <path d="m437.8 198.8q0.46875 0.75 3.4688-0.65625 3-1.3125 3.6562-2.7188 0.65625-1.3125 0.75-3.2812 0.1875-1.875 0.28125-10.031 0.0937-10.594 0.5625-11.719 0.375-0.84375 2.25-0.9375 0.375 0 0.5625 0 2.9062-0.0937 3.0938 1.2188 0.1875 1.3125-2.1562 6.1875-1.3125 2.9062-0.9375 3.0938 0.5625 0.375 1.0312 0.0937 0.5625-0.28125 2.1562-1.875 2.0625-2.0625 3.375-3.1875 0.65625-0.46875 2.1562-2.4375t2.9062-2.3438q1.4062-0.46875 1.5938-0.84375t-0.46875-1.4062q-1.125-1.5938-1.0312-2.3438 0.0937-0.75 1.6875-1.875 1.9688-1.125 3.5625-2.625 1.9688-1.5938 2.9062-1.5938 0.9375-0.0937 2.0625 1.3125 0.75 0.9375 2.8125 3.0938 1.875 1.875 1.9688 2.625 0.0937 0.75-1.4062 1.7812-1.7812 1.2188-6.8438 3.1875-5.0625 1.875-9.4688 3-0.65625 0.0937-0.84375 0.5625-0.1875 0.375 0.28125 0.75 0.28125 0.28125 4.0312-0.46875 3.8438-0.75 7.2188-1.6875 3.2812-0.9375 4.3125-0.75 1.0312 0.0937 1.125 1.5 0.375 3.8438-2.4375 4.9688-2.8125 1.0312-10.969 0.0937-1.7812-0.1875-1.875 0.0937-0.0937 0.1875 0.75 2.0625 0.75 1.7812 1.125 2.0625t1.4062-0.0937q9.0938-2.3438 8.7188 0.9375-0.0937 0.28125-0.1875 0.5625-1.125 3.0938-5.7188 6.375t-11.062 5.7188q-1.5 0.5625-0.5625 1.4062 0.28125 0.28125 2.1562-0.1875 14.906-4.125 20.812-12.656 1.0312-1.5 1.125-1.7812 0.1875-0.28125 1.2188-0.75 1.125-0.46875 1.875-0.46875 0.84375 0 3.6562 0 5.625-0.0937 6.5625 0.84375 1.0312 0.84375-0.28125 4.875-0.84375 2.625-2.5312 3.1875-1.6875 0.65625-7.5 0.1875-4.5938-0.28125-4.6875 0.1875 0 0.1875 0.0937 0.5625 0.1875 0.375 1.9688 0.75 6.375 1.0312 6.375 4.5 0 1.3125 3.9375 0.5625 3.6562-0.75 5.5312-3.2812t2.8125-7.9688q0.5625-3.75 2.5312-4.3125 2.4375-0.65625-0.28125-3.1875-2.5312-2.3438-3.75-2.625-1.2188-0.375-2.4375 0.9375-1.3125 1.3125-2.25 1.5938t-4.5938 0.28125q-3.4688 0-4.3125-0.1875t-1.2188-0.9375q-0.28125-0.65625 0.1875-1.9688 0.5625-1.4062 1.2188-1.5938 1.875-0.65625 0.46875-1.5938-0.5625-0.375-1.5-0.65625-1.3125-0.375-1.9688-0.75-0.65625-0.46875-0.65625-0.84375 0-0.46875 0.65625-0.9375 0.9375-0.75 2.0625-0.65625 1.125 0.0937 3.75 1.2188 8.625 3.6562 13.969 4.5938 2.1562 0.375 2.625 0.375 0.46875-0.0937 0.65625-0.84375 0.1875-0.65625 1.125-1.6875 0.9375-1.125 1.6875-1.5 0.9375-0.65625 0.9375-0.84375 0-0.375-0.46875-0.46875-0.375-0.0937-3-0.375-3.5625-0.375-8.25-1.4062-4.5938-1.0312-5.625-1.5-1.3125-0.65625-1.0312-1.4062 0.28125-0.84375 2.625-3.0938 2.8125-2.8125 3.6562-4.0312 1.3125-1.7812 2.0625-2.0625 0.84375-0.375 3.6562-0.46875 3.9375-0.1875 4.4062-1.125 0.5625-0.9375-2.0625-3.375-2.4375-2.25-3.5625-2.5312t-1.9688 0.9375q-2.25 2.8125-3.375 3.0938-1.0312 0.28125-8.4375 0.28125-8.0625 0-8.4375-0.28125-0.75-0.75-0.0937-2.0625 0.65625-1.3125 1.875-1.5 0.5625-0.0937 0.75-0.28125 0.28125-0.28125 0-0.65625-0.1875-0.375-0.84375-0.65625-1.6875-0.65625-0.46875-1.6875 1.125-1.0312 8.7188-1.125 7.5938-0.0937 8.0625-0.46875 1.6875-1.3125-1.6875-4.0312-2.25-1.7812-3-1.7812-0.65625-0.0937-2.0625 1.4062-1.5938 1.7812-4.875 2.0625t-11.25-0.46875q-1.0312-0.0937-1.2188 0.0937-0.0937 0.1875 0.375 1.2188 1.125 2.0625-1.3125 7.5938-2.3438 5.5312-5.9062 9.75-3.4688 4.2188-5.1562 3-0.9375-0.75-2.7188 1.125-2.4375 2.3438-4.7812 2.25-2.3438-0.1875-3.1875-2.8125-0.5625-1.875-0.0937-2.625 0.5625-0.84375 3.1875-2.1562 0.84375-0.375 2.8125-1.5938 2.0625-1.2188 3.75-2.1562t2.4375-1.0312q2.7188-0.28125-1.5-4.6875-0.28125-0.375-0.65625-0.75-1.4062-1.4062-1.6875-1.5-0.28125-0.0937-1.0312 0.84375-1.5938 2.25-3.2812 2.625-1.4062 0.375-10.781 0.28125-9.2812-0.0937-14.062-0.5625-1.6875-0.1875-1.875 0.0937-0.0937 0.1875 0.75 1.9688 0.9375 1.9688 1.3125 2.25 0.375 0.1875 2.0625 0 15.75-2.25 19.219-0.28125 0.84375 0.46875 0.46875 1.2188-2.4375 4.5-7.0312 3-6-2.0625-8.0625-1.2188-1.0312 0.46875 1.2188 1.6875 5.625 3.0938 6.5625 5.5312 0.375 0.9375-0.46875 1.3125t-8.8125 0.28125q-7.9688-0.1875-9.375-0.5625-0.5625-0.0937-0.5625 0.1875-0.0937 0.28125 0.65625 1.6875 0.9375 2.1562 1.4062 2.4375 0.46875 0.1875 2.5312-0.28125 2.625-0.5625 5.8125-0.65625 3.1875-0.0937 3.6562 0.375 1.5938 1.3125-2.9062 7.875-4.4062 6.4688-10.406 11.531-2.0625 1.6875-1.5 2.5312 0.75 0.84375 5.4375-2.5312t9.4688-8.25q3.375-3.375 3.9375-2.8125 0.65625 0.46875 0.65625 6.5625 0 5.9062-0.75 6.75-0.75 0.75-6.0938 0.46875-3.2812-0.0937-3.375 0.1875-0.1875 0.46875 0.0937 0.75 0.375 0.28125 1.5 0.375 5.3438 0.84375 5.9062 4.5 0 0.1875 0.0937 0.46875 0.0937 0.375 0.0937 0.46875zm44.062-35.25q-2.4375 1.0312-7.2188-2.7188-2.1562-1.6875-2.625-2.5312t0.28125-1.5q0.84375-0.75 7.5-0.5625 6.75 0.0937 7.0312 0.84375 0.375 0.84375-1.5 3.2812t-3.4688 3.1875zm-21.938-14.625q1.4062 1.4062 4.875-0.28125 1.125-0.5625 1.3125-1.125 0.1875-0.84375 0-7.875-0.1875-7.5938-0.1875-8.0625 0.28125-2.0625 2.625-2.5312 1.5-0.28125 12.562-0.28125 12.375 0 13.875 0.5625 1.4062 0.46875 0.75 2.625-0.0937 0.1875-0.84375 2.25-0.9375 2.5312-0.5625 2.9062 0.5625 0.375 1.5938-0.375 1.125-0.84375 4.2188-3.8438 3.1875-3.0938 4.875-3.5625 2.0625-0.5625-0.1875-3.375-0.75-0.9375-1.875-2.1562-1.7812-1.9688-2.5312-1.9688-0.65625-0.0937-2.0625 1.6875-0.1875 0.1875-0.46875 0.5625-1.0312 1.4062-2.5312 1.5938-1.5938 0.28125-10.781 0.28125h-4.217q-12.188 0-13.594-0.65625-1.0312-0.5625-0.75-2.625 0-0.28125 0-0.375 0-0.0937 0-0.375 0.1875-1.5 1.125-1.875 1.4062-0.46875 13.406-0.46875h1.5934q11.25 0 13.125-0.0937t2.0625-0.84375q0.375-1.5-4.2188-4.9688-2.3438-1.875-3.0938-1.875-0.65625-0.0937-1.9688 1.5938-1.9688 2.625-3 3.0938-0.75 0.375-24 0.375-24.656 0-30.375-0.46875-1.3125-0.1875-1.3125 0.28125 0 0.28125 0.84375 2.1562 0.84375 1.6875 1.125 1.875 0.375 0.1875 2.25-0.0937 5.25-0.84375 15.844-0.9375 8.8125-0.0937 9.8438 0.5625 0.65625 0.46875 0.65625 2.625 0 0.1875 0 0.46875 0 1.6875-0.84375 2.0625-1.3125 0.5625-11.625 0.5625h-2.4366q-12.656-0.0937-13.781-0.5625-0.5625-0.28125-0.9375-1.5938-0.46875-1.4062-1.0312-1.2188-0.5625 0.0937-0.65625 1.7812-0.5625 6-5.1562 9.2812-1.875 1.2188-2.25 2.9062-0.375 1.5938 0.75 2.625 1.125 0.9375 3.1875 0.5625 4.9688-0.84375 6-7.875 0-0.1875 0.0937-0.5625 0.1875-1.6875 1.125-2.0625 1.2188-0.46875 10.969-0.46875h2.343q10.406 0 11.906 0.1875 1.5938 0.0937 2.0625 1.125 0.84375 1.875-0.1875 16.594-0.1875 1.2188-0.0937 1.5 0.0937 0.28125 0.5625 0.75zm-25.781-2.625q0.1875 0.1875 0.46875 0.0937 1.875-0.65625 3.5625-0.84375t7.875-0.28125q9-0.0937 9.6562-0.75 0.5625-0.65625-2.625-3.2812-0.375-0.28125-0.9375-0.75-1.2188-1.0312-1.6875-1.0312t-1.5938 1.125q-1.6875 1.7812-5.9062 1.9688-4.2188 0.0937-7.5938-0.28125-3.2812-0.375-3.2812-0.0937 0 0.1875 0.84375 1.9688 0.9375 1.7812 1.2188 2.1562zm0.28125-10.031q0.84375 1.7812 1.125 1.9688t1.4062-0.1875q2.4375-0.84375 10.219-0.84375 7.4062 0.0937 7.6875-0.75 0.375-0.75-3.2812-3.75-1.5938-1.3125-1.875-1.3125t-1.2188 0.9375q-1.5938 1.6875-3.8438 2.0625t-8.25-0.1875q-0.375 0-1.0312-0.0937-1.5-0.0937-1.6875 0.0937-0.1875 0.0937 0.375 1.3125 0.28125 0.46875 0.375 0.75zm37.312 1.7812q0.375 0.5625 1.875 0 2.4375-0.84375 9.0938-0.75 2.8125 0.0937 6 0.0937 3 0.0937 3.2812-0.75 0.375-0.9375-2.0625-3-2.3438-2.0625-2.8125-2.1562-0.46875-0.0937-1.5938 0.9375-1.5938 1.6875-3.9375 2.0625-2.25 0.28125-8.5312-0.28125-2.7188-0.1875-2.9062 0.46875-0.1875 0.5625 1.5938 3.375z"/>
   <path d="m518.9 194.86q1.875 3.4688 2.1562 3.4688 0.65625 0 0.84375-1.3125 0.0937-0.65625 2.625-3.2812 0.75-0.84375 2.625-3t2.1562-2.5312q1.0312-1.2188 1.7812-1.875t1.2188-1.0312 0.9375-0.0937q0.5625 0.28125 0.75 0.46875 0.28125 0.0937 0.9375 1.0312 0.65625 0.84375 1.0312 1.2188 2.7188 3.0938 4.9688 4.5938 2.3438 1.5938 7.4062 2.5312 5.1562 1.0312 11.906 1.2188 6.75 0.28125 19.969 0.28125 16.031 0 16.875-0.375 0.28125-0.1875 0.75-1.0312 1.0312-2.5312 3.0938-3.4688 1.6875-0.84375 0.84375-1.3125-0.1875-0.0937-5.3438-0.0937-5.9062 0.1875-22.781 0.1875t-19.125-0.1875q-12.75-0.9375-18.656-6.4688-1.5-1.2188-1.6875-2.4375t-0.1875-8.5312q0-0.375 0-1.0312 0-6.4688 0.28125-7.6875t2.0625-1.7812q1.3125-0.46875 1.5938-0.84375 0.375-0.46875 0-1.125-0.375-0.75-1.7812-2.25-3.375-3.5625-4.6875-3.9375-1.3125-0.46875-2.625 1.7812-1.6875 2.8125-2.9062 3.0938-0.46875 0.1875-3.75 0.0937-3.2812-0.1875-4.2188-0.375-1.125-0.1875-1.2188 0.0937-0.0937 0.28125 0.65625 1.875 0.75 1.875 1.0312 2.0625 0.375 0.0937 2.25-0.28125 2.1562-0.5625 3.0938-0.75 1.0312-0.28125 2.0625 0 1.125 0.28125 1.4062 0.75 0.375 0.375 0.65625 2.0625 0.375 1.5938 0.375 3.2812t0 5.25q0 0.9375 0 2.5312 0 6.75-1.0312 8.4375-0.9375 1.6875-6.75 5.0625-1.2188 0.65625-1.875 1.0312-1.5 0.75-1.5 1.125-0.0937 0.375 1.7812 3.5625zm28.219-9.6562q1.9688 0.46875 3.8438-0.75 1.9688-1.3125 1.7812-3-0.46875-5.4375-0.1875-10.031 0.28125-4.6875 1.125-5.25 0.65625-0.375 6.375-0.375 5.8125 0 6.4688 0.375 1.5938 0.9375 0.9375 11.812-0.28125 4.9688 0 5.9062 0.375 0.84375 2.5312 0.5625 2.5312-0.46875 3.1875-1.4062 0.65625-1.0312 0.46875-4.4062-0.46875-9.2812 0-10.781 0.5625-1.7812 3.5625-1.9688 0.75 0 4.4062 0 0.5625 0 1.5 0 4.875 0.0937 5.625 0.75 0.75 0.75 0.65625 4.7812 0 0.65625 0 1.0312-0.0937 4.2188-1.0312 5.0625-0.84375 0.75-5.1562 0.46875-1.5-0.0937-2.25-0.0937-0.75-0.0937-1.2188 0-0.375 0.0937-0.46875 0.1875-0.0937 0.0937-0.0937 0.375 0 0.84375 1.5938 0.84375 1.875 0 3.5625 1.4062 1.7812 1.4062 2.1562 3.375t3.5625 0.65625q3.375-1.3125 4.4062-3.9375 0.0937-0.0937 0.0937-0.1875 0.28125-0.65625 0.375-20.625 0.0937-18.656 0.46875-20.344 0.28125-1.125 1.5-1.5938 0.5625-0.28125 0.84375-0.375 1.3125-0.65625 0.84375-1.6875-0.46875-1.125-2.9062-3.1875-2.8125-2.3438-3.75-2.4375-0.84375-0.0937-2.1562 1.875-0.9375 1.5938-1.9688 1.9688-0.9375 0.375-3.9375 0.375-3.0938 0-3.75-0.28125-0.65625-0.375-0.84375-2.0625-0.0937-1.125-1.6875-3.2812-1.5-2.0625 2.25-3.2812 3.1875-1.0312 10.875-4.7812 2.3438-1.3125 4.125-1.5938 1.4062-0.28125 1.7812-0.5625 0.46875-0.375 0.1875-0.9375-0.5625-1.125-2.625-3.0938-1.9688-2.0625-3.0938-2.625-0.75-0.375-2.9062 1.6875-1.6875 1.5-2.4375 1.7812-0.75 0.1875-18.375 0.1875-17.531-0.0937-19.969-0.375-2.1562-0.1875-2.3438 0.0937-0.1875 0.1875 0.84375 2.0625 0.9375 1.7812 1.3125 2.0625 0.375 0.1875 2.1562-0.0937 5.25-0.84375 19.125-0.9375 11.906-0.0937 12.562 0.1875 1.7812 1.0312-1.3125 3.375-0.75 0.46875-1.6875 1.125-3.375 2.25-4.5938 2.5312-1.125 0.1875-4.0312-0.75-4.2188-1.4062-12.094-2.625-0.65625-0.0937-1.125 0.1875-0.375 0.28125-0.28125 0.75 0.0937 0.46875 2.4375 1.3125 5.0625 1.875 9.375 4.6875 4.3125 2.7188 4.3125 4.0312 0 1.2188-9.9375 1.2188-7.3125 0-8.8125-0.1875-1.4062-0.1875-4.7812-1.7812-2.3438-1.0312-2.625-0.84375-0.28125 0.0937 0 2.5312 0.75 6.75 0.84375 20.625 0.0937 13.781-0.5625 23.625-0.28125 4.4062-0.1875 5.4375 0.1875 0.9375 1.125 1.2188zm19.406-22.312q-0.46875 0.28125-6.4688 0.28125-6.0938 0-6.8438-0.5625-0.75-0.65625-0.75-5.3438t0.75-5.25 6.8438-0.5625 6.8438 0.5625 0.75 5.25q0 3.2812-0.1875 4.2188t-0.9375 1.4062zm21.938-0.28125q-0.46875 0.46875-6.8438 0.65625-6.375 0.0937-7.0312-0.375-1.3125-0.84375-1.3125-5.625t1.3125-5.5312q0.65625-0.46875 6.75-0.375 6.1875 0.0937 6.8438 0.5625 1.125 0.65625 1.2188 5.25 0.0937 4.5-0.9375 5.4375zm-21.938-14.344q-0.46875 0.28125-6.4688 0.28125t-6.8438-0.5625q-0.75-0.65625-0.75-4.9688 0-4.4062 0.84375-4.9688 0.84375-0.65625 6.75-0.65625t6.75 0.65625q0.84375 0.5625 0.84375 4.9688 0 3.0938-0.1875 3.9375t-0.9375 1.3125zm21.656-0.1875q-0.65625 0.46875-6.8438 0.5625-6.0938 0-6.75-0.46875-1.0312-0.5625-1.2188-4.7812t0.84375-5.1562q0.65625-0.65625 6.8438-0.75 6.1875-0.1875 7.125 0.375 1.2188 0.84375 1.2188 5.1562t-1.2188 5.0625zm-57.281-0.9375q1.875 0.84375 3.0938-0.5625 1.3125-1.5 0.75-3.8438-0.75-3.0938-4.125-5.625t-8.3438-3.75q-2.5312-0.5625-2.8125 0-0.1875 0.46875 1.875 2.0625 2.8125 2.25 5.25 5.3438 2.4375 3 3.375 5.3438 0.375 0.75 0.9375 1.0312zm3.0938-19.219q2.3438 0.93749 3.375-1.125 1.125-2.0625-0.28125-4.9688-2.25-4.5938-9.1875-7.125-4.125-1.5-4.5-1.125t2.5312 3.375q4.5 4.5 6.375 8.5312 1.125 2.1562 1.6875 2.4375z"/>
  </g>
 </g>
</svg>
