<?xml version="1.0" encoding="UTF-8"?>
<!-- Created with Inkscape (http://www.inkscape.org/) -->
<svg width="174.25mm" height="57.107mm" version="1.1" viewBox="0 0 174.25 57.107" xmlns="http://www.w3.org/2000/svg" xmlns:cc="http://creativecommons.org/ns#" xmlns:dc="http://purl.org/dc/elements/1.1/" xmlns:rdf="http://www.w3.org/1999/02/22-rdf-syntax-ns#">
 <metadata>
  <rdf:RDF>
   <cc:Work rdf:about="">
    <dc:format>image/svg+xml</dc:format>
    <dc:type rdf:resource="http://purl.org/dc/dcmitype/StillImage"/>
    <dc:title/>
   </cc:Work>
  </rdf:RDF>
 </metadata>
 <g transform="translate(-16.443 -123.3)">
  <g transform="translate(-.84079 -95.03)">
   <circle cx="45.837" cy="246.89" r="28.553" fill="#0d2727" opacity=".96"/>
   <circle cx="45.837" cy="239.01" r="20.675" fill="#6fcfcf" opacity=".96"/>
   <circle cx="45.837" cy="232.01" r="13.68" fill="#c3ebeb" opacity=".96"/>
  </g>
  <g transform="matrix(.51311 0 0 .51311 -83.176 73.667)" style="font-feature-settings:normal;font-variant-caps:normal;font-variant-ligatures:normal;font-variant-numeric:normal" aria-label="Geph">
   <path d="m377.48 175.3q-4.32 2.88-9.888 4.704-5.472 1.728-12.288 1.728-7.872 0-13.632-2.592t-9.6-7.008q-3.744-4.416-5.568-10.176-1.824-5.856-1.824-12.384 0-6.816 2.016-12.768t5.952-10.368q4.032-4.512 9.888-7.104 5.952-2.592 13.824-2.592 5.568 0 10.848 1.152 5.28 1.056 9.408 2.976l-2.016 6.912q-3.072-2.016-7.968-3.36-4.8-1.344-10.848-1.344-6.432 0-10.848 1.92-4.416 1.824-7.2 5.184-2.688 3.36-3.936 8.16-1.152 4.704-1.152 10.464 0 13.152 5.76 19.872t17.184 6.72q4.224 0 7.872-0.864 3.744-0.864 6.816-2.208v-17.856h7.2z"/>
   <path d="m410.97 134.98q8.448 0 13.056 4.32 4.608 4.224 4.608 12 0 1.632-0.192 3.36-0.192 1.632-0.672 2.4h-32.352v0.96q0 3.648 0.96 7.008t2.88 5.952 4.8 4.128q2.976 1.536 7.008 1.536 2.304 0 4.512-0.48 2.208-0.576 4.224-1.344 2.016-0.864 3.744-1.824t3.072-1.92l1.152 5.472q-1.248 0.768-3.072 1.728-1.824 0.864-4.032 1.632t-4.896 1.248q-2.592 0.576-5.472 0.576-5.376 0-9.504-1.824-4.128-1.92-6.912-5.088-2.784-3.264-4.224-7.488t-1.44-8.832q0-4.704 1.44-8.928 1.536-4.32 4.416-7.584t7.104-5.088q4.32-1.92 9.792-1.92zm-0.288 5.376q-6.336 0-9.888 3.36-3.456 3.264-4.704 8.256h26.208q0.096-0.48 0.096-0.864t0-0.864q0-2.4-0.96-4.224-0.96-1.92-2.592-3.168t-3.744-1.824q-2.112-0.672-4.416-0.672z"/>
   <path d="m464.6 134.98q4.896 0 8.544 1.92t6.048 5.088 3.552 7.392q1.248 4.128 1.248 8.736 0 4.8-1.344 9.12-1.248 4.224-3.84 7.488-2.496 3.168-6.336 5.088t-8.928 1.92q-6.432 0-10.56-2.784t-5.376-6.912v33.504h-6.72v-69.12h5.28l0.768 8.256h0.384q1.152-1.728 2.784-3.456 1.728-1.824 3.936-3.168t4.8-2.208q2.688-0.864 5.76-0.864zm-1.728 5.664q-4.608 0-8.64 2.496-3.936 2.496-6.624 7.2v14.112q0.864 2.784 2.496 4.896t3.744 3.648q2.208 1.536 4.608 2.304 2.496 0.768 4.992 0.768 3.36 0 5.856-1.344t4.128-3.744q1.728-2.4 2.592-5.568t0.864-6.816q0-3.456-0.864-6.72-0.768-3.264-2.496-5.76t-4.416-3.936q-2.592-1.536-6.24-1.536z"/>
   <path d="m527.02 180.58v-29.184q0-5.856-2.592-8.256-2.592-2.496-6.624-2.496-2.4 0-4.8 0.768-2.304 0.768-4.32 2.304-2.016 1.44-3.552 3.648-1.536 2.112-2.4 4.896v28.32h-6.72v-71.04h6.72v35.136q1.248-4.032 5.376-6.816 4.224-2.88 10.656-2.88 3.072 0 5.76 0.864 2.784 0.768 4.8 2.592t3.168 4.8q1.248 2.976 1.248 7.296v30.048z"/>
  </g>
 </g>
</svg>
